<mxfile host="app.diagrams.net" modified="2023-12-05T13:12:23.883Z" agent="Mozilla/5.0 (Windows NT 10.0; Win64; x64) AppleWebKit/537.36 (KHTML, like Gecko) Chrome/119.0.0.0 Safari/537.36" etag="w1YuKjlVdzRMsWY6TJ5E" version="22.1.5" type="device">
  <diagram name="Trang-1" id="o5rjC0ZhlZTx5ft0N9AA">
    <mxGraphModel dx="4347" dy="2905" grid="1" gridSize="10" guides="1" tooltips="1" connect="1" arrows="1" fold="1" page="1" pageScale="1" pageWidth="827" pageHeight="1169" math="0" shadow="0">
      <root>
        <mxCell id="0" />
        <mxCell id="1" parent="0" />
        <mxCell id="toslXKHsmFbqnP_3Z2xM-1" value="" style="rounded=0;whiteSpace=wrap;html=1;gradientColor=none;" vertex="1" parent="1">
          <mxGeometry x="20" width="1900" height="3060" as="geometry" />
        </mxCell>
        <mxCell id="toslXKHsmFbqnP_3Z2xM-95" value="" style="rounded=0;whiteSpace=wrap;html=1;" vertex="1" parent="1">
          <mxGeometry x="870" y="-30" width="240" height="60" as="geometry" />
        </mxCell>
        <mxCell id="toslXKHsmFbqnP_3Z2xM-27" style="rounded=0;orthogonalLoop=1;jettySize=auto;html=1;exitX=1;exitY=0.3333333333333333;exitDx=0;exitDy=0;exitPerimeter=0;entryX=0;entryY=0.5;entryDx=0;entryDy=0;endArrow=none;endFill=0;" edge="1" parent="1" source="toslXKHsmFbqnP_3Z2xM-2" target="toslXKHsmFbqnP_3Z2xM-4">
          <mxGeometry relative="1" as="geometry" />
        </mxCell>
        <mxCell id="toslXKHsmFbqnP_3Z2xM-55" style="rounded=0;orthogonalLoop=1;jettySize=auto;html=1;exitX=1;exitY=0.3333333333333333;exitDx=0;exitDy=0;exitPerimeter=0;entryX=0;entryY=0.5;entryDx=0;entryDy=0;endArrow=none;endFill=0;" edge="1" parent="1" source="toslXKHsmFbqnP_3Z2xM-2" target="toslXKHsmFbqnP_3Z2xM-29">
          <mxGeometry relative="1" as="geometry" />
        </mxCell>
        <mxCell id="toslXKHsmFbqnP_3Z2xM-59" style="rounded=0;orthogonalLoop=1;jettySize=auto;html=1;exitX=1;exitY=0.3333333333333333;exitDx=0;exitDy=0;exitPerimeter=0;entryX=0;entryY=0.5;entryDx=0;entryDy=0;endArrow=none;endFill=0;" edge="1" parent="1" source="toslXKHsmFbqnP_3Z2xM-2" target="toslXKHsmFbqnP_3Z2xM-34">
          <mxGeometry relative="1" as="geometry" />
        </mxCell>
        <mxCell id="toslXKHsmFbqnP_3Z2xM-2" value="USER" style="shape=umlActor;verticalLabelPosition=bottom;verticalAlign=top;html=1;outlineConnect=0;" vertex="1" parent="1">
          <mxGeometry x="-90" y="860" width="30" height="60" as="geometry" />
        </mxCell>
        <mxCell id="toslXKHsmFbqnP_3Z2xM-39" style="rounded=0;orthogonalLoop=1;jettySize=auto;html=1;exitX=1;exitY=0.3333333333333333;exitDx=0;exitDy=0;exitPerimeter=0;entryX=0;entryY=0.5;entryDx=0;entryDy=0;endArrow=none;endFill=0;" edge="1" parent="1" source="toslXKHsmFbqnP_3Z2xM-3" target="toslXKHsmFbqnP_3Z2xM-35">
          <mxGeometry relative="1" as="geometry" />
        </mxCell>
        <mxCell id="toslXKHsmFbqnP_3Z2xM-40" style="rounded=0;orthogonalLoop=1;jettySize=auto;html=1;exitX=1;exitY=0.3333333333333333;exitDx=0;exitDy=0;exitPerimeter=0;entryX=0;entryY=0.5;entryDx=0;entryDy=0;endArrow=none;endFill=0;" edge="1" parent="1" source="toslXKHsmFbqnP_3Z2xM-3" target="toslXKHsmFbqnP_3Z2xM-36">
          <mxGeometry relative="1" as="geometry" />
        </mxCell>
        <mxCell id="toslXKHsmFbqnP_3Z2xM-41" style="rounded=0;orthogonalLoop=1;jettySize=auto;html=1;exitX=1;exitY=0.3333333333333333;exitDx=0;exitDy=0;exitPerimeter=0;entryX=0;entryY=0.5;entryDx=0;entryDy=0;endArrow=none;endFill=0;" edge="1" parent="1" source="toslXKHsmFbqnP_3Z2xM-3" target="toslXKHsmFbqnP_3Z2xM-37">
          <mxGeometry relative="1" as="geometry" />
        </mxCell>
        <mxCell id="toslXKHsmFbqnP_3Z2xM-42" style="rounded=0;orthogonalLoop=1;jettySize=auto;html=1;exitX=1;exitY=0.3333333333333333;exitDx=0;exitDy=0;exitPerimeter=0;entryX=0;entryY=0.5;entryDx=0;entryDy=0;endArrow=none;endFill=0;" edge="1" parent="1" source="toslXKHsmFbqnP_3Z2xM-3" target="toslXKHsmFbqnP_3Z2xM-38">
          <mxGeometry relative="1" as="geometry" />
        </mxCell>
        <mxCell id="toslXKHsmFbqnP_3Z2xM-61" style="rounded=0;orthogonalLoop=1;jettySize=auto;html=1;exitX=0.5;exitY=0;exitDx=0;exitDy=0;exitPerimeter=0;" edge="1" parent="1" source="toslXKHsmFbqnP_3Z2xM-3">
          <mxGeometry relative="1" as="geometry">
            <mxPoint x="-75" y="940" as="targetPoint" />
          </mxGeometry>
        </mxCell>
        <mxCell id="toslXKHsmFbqnP_3Z2xM-3" value="ADMIN" style="shape=umlActor;verticalLabelPosition=bottom;verticalAlign=top;html=1;outlineConnect=0;" vertex="1" parent="1">
          <mxGeometry x="-90" y="2240" width="30" height="60" as="geometry" />
        </mxCell>
        <mxCell id="toslXKHsmFbqnP_3Z2xM-9" style="rounded=0;orthogonalLoop=1;jettySize=auto;html=1;exitX=1;exitY=0;exitDx=0;exitDy=0;entryX=0;entryY=0.5;entryDx=0;entryDy=0;dashed=1;startArrow=classic;startFill=1;endArrow=none;endFill=0;" edge="1" parent="1" source="toslXKHsmFbqnP_3Z2xM-4" target="toslXKHsmFbqnP_3Z2xM-6">
          <mxGeometry relative="1" as="geometry" />
        </mxCell>
        <mxCell id="toslXKHsmFbqnP_3Z2xM-11" style="rounded=0;orthogonalLoop=1;jettySize=auto;html=1;exitX=1;exitY=0.5;exitDx=0;exitDy=0;entryX=0;entryY=0.5;entryDx=0;entryDy=0;dashed=1;startArrow=classic;startFill=1;endArrow=none;endFill=0;" edge="1" parent="1" source="toslXKHsmFbqnP_3Z2xM-4" target="toslXKHsmFbqnP_3Z2xM-7">
          <mxGeometry relative="1" as="geometry" />
        </mxCell>
        <mxCell id="toslXKHsmFbqnP_3Z2xM-12" style="rounded=0;orthogonalLoop=1;jettySize=auto;html=1;exitX=1;exitY=1;exitDx=0;exitDy=0;entryX=0;entryY=0.5;entryDx=0;entryDy=0;dashed=1;startArrow=classic;startFill=1;endArrow=none;endFill=0;" edge="1" parent="1" source="toslXKHsmFbqnP_3Z2xM-4" target="toslXKHsmFbqnP_3Z2xM-8">
          <mxGeometry relative="1" as="geometry" />
        </mxCell>
        <mxCell id="toslXKHsmFbqnP_3Z2xM-4" value="GIOHANG" style="ellipse;whiteSpace=wrap;html=1;" vertex="1" parent="1">
          <mxGeometry x="200" y="320" width="120" height="80" as="geometry" />
        </mxCell>
        <mxCell id="toslXKHsmFbqnP_3Z2xM-25" style="edgeStyle=orthogonalEdgeStyle;rounded=0;orthogonalLoop=1;jettySize=auto;html=1;exitX=1;exitY=0.5;exitDx=0;exitDy=0;entryX=0.5;entryY=0;entryDx=0;entryDy=0;dashed=1;startArrow=classic;startFill=1;endArrow=none;endFill=0;" edge="1" parent="1" source="toslXKHsmFbqnP_3Z2xM-5" target="toslXKHsmFbqnP_3Z2xM-16">
          <mxGeometry relative="1" as="geometry" />
        </mxCell>
        <mxCell id="toslXKHsmFbqnP_3Z2xM-28" style="edgeStyle=orthogonalEdgeStyle;rounded=0;orthogonalLoop=1;jettySize=auto;html=1;exitX=0;exitY=0.5;exitDx=0;exitDy=0;entryX=0.5;entryY=0;entryDx=0;entryDy=0;endArrow=none;endFill=0;startArrow=classic;startFill=1;dashed=1;" edge="1" parent="1" source="toslXKHsmFbqnP_3Z2xM-5" target="toslXKHsmFbqnP_3Z2xM-4">
          <mxGeometry relative="1" as="geometry" />
        </mxCell>
        <mxCell id="toslXKHsmFbqnP_3Z2xM-5" value="LICHSUTHANHTOAN" style="ellipse;whiteSpace=wrap;html=1;" vertex="1" parent="1">
          <mxGeometry x="380" y="110" width="140" height="90" as="geometry" />
        </mxCell>
        <mxCell id="toslXKHsmFbqnP_3Z2xM-6" value="THEM" style="ellipse;whiteSpace=wrap;html=1;" vertex="1" parent="1">
          <mxGeometry x="570" y="280" width="120" height="80" as="geometry" />
        </mxCell>
        <mxCell id="toslXKHsmFbqnP_3Z2xM-7" value="XOA" style="ellipse;whiteSpace=wrap;html=1;" vertex="1" parent="1">
          <mxGeometry x="570" y="440" width="120" height="80" as="geometry" />
        </mxCell>
        <mxCell id="toslXKHsmFbqnP_3Z2xM-18" style="rounded=0;orthogonalLoop=1;jettySize=auto;html=1;exitX=1;exitY=0;exitDx=0;exitDy=0;entryX=0;entryY=0.5;entryDx=0;entryDy=0;dashed=1;startArrow=classic;startFill=1;endArrow=none;endFill=0;" edge="1" parent="1" source="toslXKHsmFbqnP_3Z2xM-8" target="toslXKHsmFbqnP_3Z2xM-13">
          <mxGeometry relative="1" as="geometry" />
        </mxCell>
        <mxCell id="toslXKHsmFbqnP_3Z2xM-19" style="rounded=0;orthogonalLoop=1;jettySize=auto;html=1;exitX=1;exitY=1;exitDx=0;exitDy=0;entryX=0;entryY=0.5;entryDx=0;entryDy=0;dashed=1;startArrow=classic;startFill=1;endArrow=none;endFill=0;" edge="1" parent="1" source="toslXKHsmFbqnP_3Z2xM-8" target="toslXKHsmFbqnP_3Z2xM-14">
          <mxGeometry relative="1" as="geometry" />
        </mxCell>
        <mxCell id="toslXKHsmFbqnP_3Z2xM-8" value="THANHTOAN" style="ellipse;whiteSpace=wrap;html=1;" vertex="1" parent="1">
          <mxGeometry x="580" y="600" width="120" height="80" as="geometry" />
        </mxCell>
        <mxCell id="toslXKHsmFbqnP_3Z2xM-21" style="rounded=0;orthogonalLoop=1;jettySize=auto;html=1;exitX=1;exitY=0.5;exitDx=0;exitDy=0;entryX=0;entryY=0;entryDx=0;entryDy=0;dashed=1;" edge="1" parent="1" source="toslXKHsmFbqnP_3Z2xM-13" target="toslXKHsmFbqnP_3Z2xM-15">
          <mxGeometry relative="1" as="geometry" />
        </mxCell>
        <mxCell id="toslXKHsmFbqnP_3Z2xM-13" value="THANHGIOHANG" style="ellipse;whiteSpace=wrap;html=1;" vertex="1" parent="1">
          <mxGeometry x="820" y="540" width="120" height="80" as="geometry" />
        </mxCell>
        <mxCell id="toslXKHsmFbqnP_3Z2xM-22" style="rounded=0;orthogonalLoop=1;jettySize=auto;html=1;exitX=1;exitY=0.5;exitDx=0;exitDy=0;entryX=0;entryY=1;entryDx=0;entryDy=0;dashed=1;" edge="1" parent="1" source="toslXKHsmFbqnP_3Z2xM-14" target="toslXKHsmFbqnP_3Z2xM-15">
          <mxGeometry relative="1" as="geometry" />
        </mxCell>
        <mxCell id="toslXKHsmFbqnP_3Z2xM-14" value="MUANGAY" style="ellipse;whiteSpace=wrap;html=1;" vertex="1" parent="1">
          <mxGeometry x="820" y="700" width="120" height="80" as="geometry" />
        </mxCell>
        <mxCell id="toslXKHsmFbqnP_3Z2xM-15" value="KIEMTRATHANHTOAN" style="ellipse;whiteSpace=wrap;html=1;" vertex="1" parent="1">
          <mxGeometry x="1050" y="595" width="140" height="90" as="geometry" />
        </mxCell>
        <mxCell id="toslXKHsmFbqnP_3Z2xM-23" style="rounded=0;orthogonalLoop=1;jettySize=auto;html=1;exitX=0;exitY=0.5;exitDx=0;exitDy=0;entryX=1;entryY=0;entryDx=0;entryDy=0;dashed=1;" edge="1" parent="1" source="toslXKHsmFbqnP_3Z2xM-16" target="toslXKHsmFbqnP_3Z2xM-15">
          <mxGeometry relative="1" as="geometry" />
        </mxCell>
        <mxCell id="toslXKHsmFbqnP_3Z2xM-16" value="MUA" style="ellipse;whiteSpace=wrap;html=1;" vertex="1" parent="1">
          <mxGeometry x="1300" y="545" width="120" height="80" as="geometry" />
        </mxCell>
        <mxCell id="toslXKHsmFbqnP_3Z2xM-24" style="rounded=0;orthogonalLoop=1;jettySize=auto;html=1;exitX=0;exitY=0.5;exitDx=0;exitDy=0;entryX=1;entryY=1;entryDx=0;entryDy=0;dashed=1;" edge="1" parent="1" source="toslXKHsmFbqnP_3Z2xM-17" target="toslXKHsmFbqnP_3Z2xM-15">
          <mxGeometry relative="1" as="geometry" />
        </mxCell>
        <mxCell id="toslXKHsmFbqnP_3Z2xM-17" value="HUY" style="ellipse;whiteSpace=wrap;html=1;" vertex="1" parent="1">
          <mxGeometry x="1300" y="700" width="120" height="80" as="geometry" />
        </mxCell>
        <mxCell id="toslXKHsmFbqnP_3Z2xM-56" style="rounded=0;orthogonalLoop=1;jettySize=auto;html=1;exitX=0.5;exitY=0;exitDx=0;exitDy=0;entryX=0;entryY=0.5;entryDx=0;entryDy=0;dashed=1;startArrow=classic;startFill=1;endArrow=none;endFill=0;" edge="1" parent="1" source="toslXKHsmFbqnP_3Z2xM-29" target="toslXKHsmFbqnP_3Z2xM-30">
          <mxGeometry relative="1" as="geometry" />
        </mxCell>
        <mxCell id="toslXKHsmFbqnP_3Z2xM-57" style="rounded=0;orthogonalLoop=1;jettySize=auto;html=1;exitX=1;exitY=0.5;exitDx=0;exitDy=0;entryX=0;entryY=0.5;entryDx=0;entryDy=0;dashed=1;" edge="1" parent="1" source="toslXKHsmFbqnP_3Z2xM-29" target="toslXKHsmFbqnP_3Z2xM-31">
          <mxGeometry relative="1" as="geometry" />
        </mxCell>
        <mxCell id="toslXKHsmFbqnP_3Z2xM-58" style="rounded=0;orthogonalLoop=1;jettySize=auto;html=1;exitX=1;exitY=1;exitDx=0;exitDy=0;entryX=0;entryY=0.5;entryDx=0;entryDy=0;dashed=1;startArrow=classic;startFill=1;endArrow=none;endFill=0;" edge="1" parent="1" source="toslXKHsmFbqnP_3Z2xM-29" target="toslXKHsmFbqnP_3Z2xM-32">
          <mxGeometry relative="1" as="geometry" />
        </mxCell>
        <mxCell id="toslXKHsmFbqnP_3Z2xM-60" style="rounded=0;orthogonalLoop=1;jettySize=auto;html=1;exitX=0.5;exitY=1;exitDx=0;exitDy=0;entryX=0;entryY=0.5;entryDx=0;entryDy=0;dashed=1;startArrow=classic;startFill=1;endArrow=none;endFill=0;" edge="1" parent="1" source="toslXKHsmFbqnP_3Z2xM-29" target="toslXKHsmFbqnP_3Z2xM-33">
          <mxGeometry relative="1" as="geometry" />
        </mxCell>
        <mxCell id="toslXKHsmFbqnP_3Z2xM-29" value="DANGNHAP" style="ellipse;whiteSpace=wrap;html=1;" vertex="1" parent="1">
          <mxGeometry x="230" y="1140" width="120" height="80" as="geometry" />
        </mxCell>
        <mxCell id="toslXKHsmFbqnP_3Z2xM-30" value="DANGXUAT" style="ellipse;whiteSpace=wrap;html=1;" vertex="1" parent="1">
          <mxGeometry x="530" y="795" width="120" height="80" as="geometry" />
        </mxCell>
        <mxCell id="toslXKHsmFbqnP_3Z2xM-31" value="DANGKYTAIKHOAN" style="ellipse;whiteSpace=wrap;html=1;" vertex="1" parent="1">
          <mxGeometry x="530" y="1040" width="140" height="100" as="geometry" />
        </mxCell>
        <mxCell id="toslXKHsmFbqnP_3Z2xM-32" value="QUENMATKHAU" style="ellipse;whiteSpace=wrap;html=1;" vertex="1" parent="1">
          <mxGeometry x="530" y="1310" width="140" height="100" as="geometry" />
        </mxCell>
        <mxCell id="toslXKHsmFbqnP_3Z2xM-33" value="DOIMATKHAU" style="ellipse;whiteSpace=wrap;html=1;" vertex="1" parent="1">
          <mxGeometry x="540" y="1580" width="140" height="100" as="geometry" />
        </mxCell>
        <mxCell id="toslXKHsmFbqnP_3Z2xM-34" value="TIMKIEM" style="ellipse;whiteSpace=wrap;html=1;" vertex="1" parent="1">
          <mxGeometry x="240" y="1760" width="140" height="100" as="geometry" />
        </mxCell>
        <mxCell id="toslXKHsmFbqnP_3Z2xM-48" style="rounded=0;orthogonalLoop=1;jettySize=auto;html=1;exitX=1;exitY=0.5;exitDx=0;exitDy=0;entryX=0;entryY=0.5;entryDx=0;entryDy=0;dashed=1;" edge="1" parent="1" source="toslXKHsmFbqnP_3Z2xM-35" target="toslXKHsmFbqnP_3Z2xM-45">
          <mxGeometry relative="1" as="geometry" />
        </mxCell>
        <mxCell id="toslXKHsmFbqnP_3Z2xM-49" style="rounded=0;orthogonalLoop=1;jettySize=auto;html=1;exitX=1;exitY=0.5;exitDx=0;exitDy=0;entryX=0;entryY=0.5;entryDx=0;entryDy=0;dashed=1;" edge="1" parent="1" source="toslXKHsmFbqnP_3Z2xM-35" target="toslXKHsmFbqnP_3Z2xM-46">
          <mxGeometry relative="1" as="geometry" />
        </mxCell>
        <mxCell id="toslXKHsmFbqnP_3Z2xM-50" style="rounded=0;orthogonalLoop=1;jettySize=auto;html=1;exitX=1;exitY=0.5;exitDx=0;exitDy=0;entryX=0;entryY=0.5;entryDx=0;entryDy=0;dashed=1;" edge="1" parent="1" source="toslXKHsmFbqnP_3Z2xM-35" target="toslXKHsmFbqnP_3Z2xM-47">
          <mxGeometry relative="1" as="geometry" />
        </mxCell>
        <mxCell id="toslXKHsmFbqnP_3Z2xM-35" value="QUANLYSANPHAM" style="ellipse;whiteSpace=wrap;html=1;" vertex="1" parent="1">
          <mxGeometry x="330" y="1970" width="140" height="100" as="geometry" />
        </mxCell>
        <mxCell id="toslXKHsmFbqnP_3Z2xM-36" value="THONGKE" style="ellipse;whiteSpace=wrap;html=1;" vertex="1" parent="1">
          <mxGeometry x="330" y="2210" width="140" height="100" as="geometry" />
        </mxCell>
        <mxCell id="toslXKHsmFbqnP_3Z2xM-44" style="rounded=0;orthogonalLoop=1;jettySize=auto;html=1;exitX=1;exitY=0.5;exitDx=0;exitDy=0;entryX=0;entryY=0.5;entryDx=0;entryDy=0;dashed=1;" edge="1" parent="1" source="toslXKHsmFbqnP_3Z2xM-37" target="toslXKHsmFbqnP_3Z2xM-43">
          <mxGeometry relative="1" as="geometry" />
        </mxCell>
        <mxCell id="toslXKHsmFbqnP_3Z2xM-37" value="QUANLYDONHANG" style="ellipse;whiteSpace=wrap;html=1;" vertex="1" parent="1">
          <mxGeometry x="330" y="2420" width="140" height="100" as="geometry" />
        </mxCell>
        <mxCell id="toslXKHsmFbqnP_3Z2xM-52" style="edgeStyle=orthogonalEdgeStyle;rounded=0;orthogonalLoop=1;jettySize=auto;html=1;exitX=1;exitY=0.5;exitDx=0;exitDy=0;entryX=0.5;entryY=1;entryDx=0;entryDy=0;dashed=1;" edge="1" parent="1" source="toslXKHsmFbqnP_3Z2xM-38" target="toslXKHsmFbqnP_3Z2xM-47">
          <mxGeometry relative="1" as="geometry" />
        </mxCell>
        <mxCell id="toslXKHsmFbqnP_3Z2xM-53" style="edgeStyle=orthogonalEdgeStyle;rounded=0;orthogonalLoop=1;jettySize=auto;html=1;exitX=1;exitY=1;exitDx=0;exitDy=0;entryX=1;entryY=0.5;entryDx=0;entryDy=0;dashed=1;" edge="1" parent="1" source="toslXKHsmFbqnP_3Z2xM-38" target="toslXKHsmFbqnP_3Z2xM-46">
          <mxGeometry relative="1" as="geometry">
            <Array as="points">
              <mxPoint x="1530" y="2715" />
              <mxPoint x="1530" y="2260" />
            </Array>
          </mxGeometry>
        </mxCell>
        <mxCell id="toslXKHsmFbqnP_3Z2xM-54" style="edgeStyle=orthogonalEdgeStyle;rounded=0;orthogonalLoop=1;jettySize=auto;html=1;exitX=0.5;exitY=1;exitDx=0;exitDy=0;entryX=1;entryY=0.5;entryDx=0;entryDy=0;dashed=1;" edge="1" parent="1" source="toslXKHsmFbqnP_3Z2xM-38" target="toslXKHsmFbqnP_3Z2xM-45">
          <mxGeometry relative="1" as="geometry">
            <Array as="points">
              <mxPoint x="400" y="2770" />
              <mxPoint x="1600" y="2770" />
              <mxPoint x="1600" y="2020" />
            </Array>
          </mxGeometry>
        </mxCell>
        <mxCell id="toslXKHsmFbqnP_3Z2xM-38" value="QUANLYDANHMUC" style="ellipse;whiteSpace=wrap;html=1;" vertex="1" parent="1">
          <mxGeometry x="330" y="2630" width="140" height="100" as="geometry" />
        </mxCell>
        <mxCell id="toslXKHsmFbqnP_3Z2xM-43" value="SUATHONGTINDONHANG" style="ellipse;whiteSpace=wrap;html=1;" vertex="1" parent="1">
          <mxGeometry x="590" y="2320" width="170" height="110" as="geometry" />
        </mxCell>
        <mxCell id="toslXKHsmFbqnP_3Z2xM-45" value="THEM" style="ellipse;whiteSpace=wrap;html=1;" vertex="1" parent="1">
          <mxGeometry x="1310" y="1970" width="140" height="100" as="geometry" />
        </mxCell>
        <mxCell id="toslXKHsmFbqnP_3Z2xM-46" value="SUA" style="ellipse;whiteSpace=wrap;html=1;" vertex="1" parent="1">
          <mxGeometry x="1310" y="2210" width="140" height="100" as="geometry" />
        </mxCell>
        <mxCell id="toslXKHsmFbqnP_3Z2xM-47" value="XOA" style="ellipse;whiteSpace=wrap;html=1;" vertex="1" parent="1">
          <mxGeometry x="1320" y="2450" width="140" height="100" as="geometry" />
        </mxCell>
        <mxCell id="toslXKHsmFbqnP_3Z2xM-64" value="&amp;lt;&amp;lt;extend&amp;gt;&amp;gt;" style="text;html=1;strokeColor=none;fillColor=none;align=center;verticalAlign=middle;whiteSpace=wrap;rounded=0;" vertex="1" parent="1">
          <mxGeometry x="890" y="2640" width="60" height="30" as="geometry" />
        </mxCell>
        <mxCell id="toslXKHsmFbqnP_3Z2xM-65" value="&amp;lt;&amp;lt;extend&amp;gt;&amp;gt;" style="text;html=1;strokeColor=none;fillColor=none;align=center;verticalAlign=middle;whiteSpace=wrap;rounded=0;" vertex="1" parent="1">
          <mxGeometry x="970" y="2690" width="60" height="30" as="geometry" />
        </mxCell>
        <mxCell id="toslXKHsmFbqnP_3Z2xM-66" value="&amp;lt;&amp;lt;extend&amp;gt;&amp;gt;" style="text;html=1;strokeColor=none;fillColor=none;align=center;verticalAlign=middle;whiteSpace=wrap;rounded=0;" vertex="1" parent="1">
          <mxGeometry x="1120" y="2740" width="60" height="30" as="geometry" />
        </mxCell>
        <mxCell id="toslXKHsmFbqnP_3Z2xM-67" value="&amp;lt;&amp;lt;extend&amp;gt;&amp;gt;" style="text;html=1;strokeColor=none;fillColor=none;align=center;verticalAlign=middle;whiteSpace=wrap;rounded=0;rotation=325;direction=east;" vertex="1" parent="1">
          <mxGeometry x="480" y="2400" width="60" height="30" as="geometry" />
        </mxCell>
        <mxCell id="toslXKHsmFbqnP_3Z2xM-68" value="&amp;lt;&amp;lt;extend&amp;gt;&amp;gt;" style="text;html=1;strokeColor=none;fillColor=none;align=center;verticalAlign=middle;whiteSpace=wrap;rounded=0;rotation=30;" vertex="1" parent="1">
          <mxGeometry x="850" y="2220" width="60" height="30" as="geometry" />
        </mxCell>
        <mxCell id="toslXKHsmFbqnP_3Z2xM-69" value="&amp;lt;&amp;lt;extend&amp;gt;&amp;gt;" style="text;html=1;strokeColor=none;fillColor=none;align=center;verticalAlign=middle;whiteSpace=wrap;rounded=0;rotation=15;" vertex="1" parent="1">
          <mxGeometry x="910" y="2120" width="60" height="30" as="geometry" />
        </mxCell>
        <mxCell id="toslXKHsmFbqnP_3Z2xM-70" value="&amp;lt;&amp;lt;extend&amp;gt;&amp;gt;" style="text;html=1;strokeColor=none;fillColor=none;align=center;verticalAlign=middle;whiteSpace=wrap;rounded=0;rotation=0;" vertex="1" parent="1">
          <mxGeometry x="870" y="1980" width="60" height="30" as="geometry" />
        </mxCell>
        <mxCell id="toslXKHsmFbqnP_3Z2xM-71" value="&amp;lt;&amp;lt;extend&amp;gt;&amp;gt;" style="text;html=1;strokeColor=none;fillColor=none;align=center;verticalAlign=middle;whiteSpace=wrap;rounded=0;rotation=0;" vertex="1" parent="1">
          <mxGeometry x="350" y="980" width="60" height="30" as="geometry" />
        </mxCell>
        <mxCell id="toslXKHsmFbqnP_3Z2xM-76" value="&amp;lt;&amp;lt;extend&amp;gt;&amp;gt;" style="text;html=1;strokeColor=none;fillColor=none;align=center;verticalAlign=middle;whiteSpace=wrap;rounded=0;rotation=45;" vertex="1" parent="1">
          <mxGeometry x="400" y="465" width="60" height="30" as="geometry" />
        </mxCell>
        <mxCell id="toslXKHsmFbqnP_3Z2xM-77" value="&amp;lt;&amp;lt;extend&amp;gt;&amp;gt;" style="text;html=1;strokeColor=none;fillColor=none;align=center;verticalAlign=middle;whiteSpace=wrap;rounded=0;rotation=30;" vertex="1" parent="1">
          <mxGeometry x="450" y="400" width="60" height="30" as="geometry" />
        </mxCell>
        <mxCell id="toslXKHsmFbqnP_3Z2xM-78" value="&amp;lt;&amp;lt;extend&amp;gt;&amp;gt;" style="text;html=1;strokeColor=none;fillColor=none;align=center;verticalAlign=middle;whiteSpace=wrap;rounded=0;rotation=0;" vertex="1" parent="1">
          <mxGeometry x="430" y="290" width="60" height="30" as="geometry" />
        </mxCell>
        <mxCell id="toslXKHsmFbqnP_3Z2xM-79" value="&amp;lt;&amp;lt;extend&amp;gt;&amp;gt;" style="text;html=1;strokeColor=none;fillColor=none;align=center;verticalAlign=middle;whiteSpace=wrap;rounded=0;rotation=0;" vertex="1" parent="1">
          <mxGeometry x="840" y="120" width="60" height="30" as="geometry" />
        </mxCell>
        <mxCell id="toslXKHsmFbqnP_3Z2xM-81" value="&amp;lt;&amp;lt;include&amp;gt;&amp;gt;" style="text;html=1;strokeColor=none;fillColor=none;align=center;verticalAlign=middle;whiteSpace=wrap;rounded=0;rotation=0;" vertex="1" parent="1">
          <mxGeometry x="270" y="120" width="60" height="30" as="geometry" />
        </mxCell>
        <mxCell id="toslXKHsmFbqnP_3Z2xM-82" value="&amp;lt;&amp;lt;include&amp;gt;&amp;gt;" style="text;html=1;strokeColor=none;fillColor=none;align=center;verticalAlign=middle;whiteSpace=wrap;rounded=0;rotation=0;" vertex="1" parent="1">
          <mxGeometry x="730" y="555" width="60" height="30" as="geometry" />
        </mxCell>
        <mxCell id="toslXKHsmFbqnP_3Z2xM-83" value="&amp;lt;&amp;lt;include&amp;gt;&amp;gt;" style="text;html=1;strokeColor=none;fillColor=none;align=center;verticalAlign=middle;whiteSpace=wrap;rounded=0;rotation=0;" vertex="1" parent="1">
          <mxGeometry x="980" y="555" width="60" height="30" as="geometry" />
        </mxCell>
        <mxCell id="toslXKHsmFbqnP_3Z2xM-84" value="&amp;lt;&amp;lt;include&amp;gt;&amp;gt;" style="text;html=1;strokeColor=none;fillColor=none;align=center;verticalAlign=middle;whiteSpace=wrap;rounded=0;rotation=0;" vertex="1" parent="1">
          <mxGeometry x="1220" y="555" width="60" height="30" as="geometry" />
        </mxCell>
        <mxCell id="toslXKHsmFbqnP_3Z2xM-85" value="&amp;lt;&amp;lt;include&amp;gt;&amp;gt;" style="text;html=1;strokeColor=none;fillColor=none;align=center;verticalAlign=middle;whiteSpace=wrap;rounded=0;rotation=0;" vertex="1" parent="1">
          <mxGeometry x="1230" y="680" width="60" height="30" as="geometry" />
        </mxCell>
        <mxCell id="toslXKHsmFbqnP_3Z2xM-86" value="&amp;lt;&amp;lt;include&amp;gt;&amp;gt;" style="text;html=1;strokeColor=none;fillColor=none;align=center;verticalAlign=middle;whiteSpace=wrap;rounded=0;rotation=0;" vertex="1" parent="1">
          <mxGeometry x="960" y="670" width="60" height="30" as="geometry" />
        </mxCell>
        <mxCell id="toslXKHsmFbqnP_3Z2xM-87" value="&amp;lt;&amp;lt;include&amp;gt;&amp;gt;" style="text;html=1;strokeColor=none;fillColor=none;align=center;verticalAlign=middle;whiteSpace=wrap;rounded=0;rotation=0;" vertex="1" parent="1">
          <mxGeometry x="730" y="670" width="60" height="30" as="geometry" />
        </mxCell>
        <mxCell id="toslXKHsmFbqnP_3Z2xM-88" value="&amp;lt;&amp;lt;include&amp;gt;&amp;gt;" style="text;html=1;strokeColor=none;fillColor=none;align=center;verticalAlign=middle;whiteSpace=wrap;rounded=0;rotation=0;" vertex="1" parent="1">
          <mxGeometry x="400" y="1100" width="60" height="30" as="geometry" />
        </mxCell>
        <mxCell id="toslXKHsmFbqnP_3Z2xM-91" value="&amp;lt;&amp;lt;extend&amp;gt;&amp;gt;" style="text;html=1;strokeColor=none;fillColor=none;align=center;verticalAlign=middle;whiteSpace=wrap;rounded=0;rotation=5;" vertex="1" parent="1">
          <mxGeometry x="430" y="1260" width="60" height="30" as="geometry" />
        </mxCell>
        <mxCell id="toslXKHsmFbqnP_3Z2xM-92" value="&amp;lt;&amp;lt;extend&amp;gt;&amp;gt;" style="text;html=1;strokeColor=none;fillColor=none;align=center;verticalAlign=middle;whiteSpace=wrap;rounded=0;rotation=0;" vertex="1" parent="1">
          <mxGeometry x="420" y="1410" width="60" height="30" as="geometry" />
        </mxCell>
        <mxCell id="toslXKHsmFbqnP_3Z2xM-94" value="DIENMAY" style="text;html=1;strokeColor=none;fillColor=none;align=center;verticalAlign=middle;whiteSpace=wrap;rounded=0;fontSize=44;" vertex="1" parent="1">
          <mxGeometry x="880" y="-12.5" width="230" height="25" as="geometry" />
        </mxCell>
      </root>
    </mxGraphModel>
  </diagram>
</mxfile>
